<svg width="1512" height="702" viewBox="0 0 1512 702" fill="none" xmlns="http://www.w3.org/2000/svg">
<path d="M1186.5 383.973C1194.49 382.877 1202.59 385.047 1208.96 389.991L2206.3 1163.71C2220.46 1174.69 2221.89 1195.55 2209.38 1208.37L1587.71 1845.11C1580.14 1852.87 1568.96 1855.94 1558.48 1853.13L152.237 1476.33C141.76 1473.52 133.614 1465.28 130.933 1454.77L-89.0725 592.501C-93.5018 575.141 -81.8272 557.795 -64.0772 555.362L1186.5 383.973Z" fill="#29ABD7" fill-opacity="0.3"/>
<path d="M1203.43 337.967L2200.77 1111.68C2213.74 1121.75 2215.06 1140.87 2203.59 1152.62L1581.92 1789.37C1574.98 1796.48 1564.73 1799.29 1555.13 1796.72L148.884 1419.91C139.28 1417.34 131.813 1409.78 129.355 1400.15L-90.6501 537.883C-94.7103 521.97 -84.0085 506.069 -67.7378 503.839L1182.84 332.449C1190.17 331.445 1197.59 333.434 1203.43 337.967Z" stroke="#29ABD7" stroke-opacity="0.5" stroke-width="5"/>
</svg>
