<svg width="1512" height="533" viewBox="0 0 1512 533" fill="none" xmlns="http://www.w3.org/2000/svg">
<path d="M335.101 45.8949C342.192 43.089 350.086 43.089 357.177 45.8949L1519.57 505.84C1536.76 512.643 1543.77 533.227 1534.29 549.106L1100.35 1276.46C1094.94 1285.53 1085.16 1291.09 1074.59 1291.09L-382.313 1291.09C-392.878 1291.09 -402.664 1285.53 -408.077 1276.46L-842.015 549.106C-851.488 533.227 -844.482 512.643 -827.289 505.84L335.101 45.8949Z" fill="#FF00FF" fill-opacity="0.2"/>
<path d="M355.454 6.54664L1562.33 475.153C1578.29 481.348 1584.77 500.452 1575.88 515.075L1125.36 1256.08C1120.37 1264.28 1111.46 1269.29 1101.86 1269.29L-410.862 1269.29C-420.464 1269.29 -429.371 1264.28 -434.359 1256.08L-884.879 515.075C-893.77 500.452 -887.288 481.348 -871.335 475.153L335.546 6.54663C341.949 4.0605 349.051 4.06051 355.454 6.54664Z" stroke="#FF00FF" stroke-opacity="0.5" stroke-width="5"/>
</svg>
