<svg viewBox="0 0 344 256" fill="none" xmlns="http://www.w3.org/2000/svg">
<rect x="342" y="2" width="252" height="340" rx="6" transform="rotate(90 342 2)" fill="white" stroke="#CCCCCC" stroke-width="4" stroke-miterlimit="0" stroke-linecap="round"/>
<rect x="19" y="30.5454" width="128" height="47.9999" rx="19.2" fill="#CC4B45" stroke="#A33C37" stroke-width="4" stroke-miterlimit="0" stroke-linecap="round"/>
<path d="M173.08 69.4C171.32 69.4 169.653 69.12 168.08 68.56C166.507 67.9733 165.16 67.1067 164.04 65.96L165.68 63C166.88 64.0667 168.08 64.84 169.28 65.32C170.507 65.8 171.72 66.04 172.92 66.04C174.147 66.04 175.147 65.8133 175.92 65.36C176.693 64.88 177.08 64.1867 177.08 63.28C177.08 62.6133 176.88 62.12 176.48 61.8C176.08 61.48 175.493 61.2 174.72 60.96C173.973 60.72 173.067 60.4533 172 60.16C170.507 59.7067 169.253 59.24 168.24 58.76C167.227 58.2533 166.467 57.64 165.96 56.92C165.453 56.2 165.2 55.28 165.2 54.16C165.2 52.8 165.547 51.64 166.24 50.68C166.933 49.72 167.893 48.9867 169.12 48.48C170.373 47.9733 171.813 47.72 173.44 47.72C174.96 47.72 176.36 47.96 177.64 48.44C178.947 48.8933 180.093 49.6133 181.08 50.6L179.2 53.52C178.267 52.6667 177.307 52.04 176.32 51.64C175.36 51.24 174.32 51.04 173.2 51.04C172.56 51.04 171.947 51.12 171.36 51.28C170.773 51.4133 170.28 51.68 169.88 52.08C169.507 52.4533 169.32 52.9867 169.32 53.68C169.32 54.24 169.48 54.6933 169.8 55.04C170.12 55.3867 170.6 55.68 171.24 55.92C171.88 56.16 172.667 56.4267 173.6 56.72C175.227 57.2 176.613 57.68 177.76 58.16C178.907 58.6133 179.787 59.2133 180.4 59.96C181.04 60.68 181.36 61.68 181.36 62.96C181.36 64.9867 180.6 66.5733 179.08 67.72C177.587 68.84 175.587 69.4 173.08 69.4ZM184.408 69V48.08H188.808V69H184.408ZM184.408 44.64V39.8H188.808V44.64H184.408ZM204.856 67.92C204.483 68.1067 204.016 68.3067 203.456 68.52C202.896 68.7333 202.256 68.92 201.536 69.08C200.843 69.24 200.123 69.32 199.376 69.32C198.469 69.32 197.629 69.16 196.856 68.84C196.083 68.52 195.456 68.0133 194.976 67.32C194.523 66.6 194.296 65.68 194.296 64.56V51.48H191.536V48.08H194.296V41.2H198.696V48.08H203.256V51.48H198.696V63.16C198.749 63.88 198.976 64.4133 199.376 64.76C199.803 65.1067 200.323 65.28 200.936 65.28C201.549 65.28 202.136 65.1733 202.696 64.96C203.256 64.7467 203.669 64.5733 203.936 64.44L204.856 67.92ZM218.624 67.92C218.251 68.1067 217.784 68.3067 217.224 68.52C216.664 68.7333 216.024 68.92 215.304 69.08C214.611 69.24 213.891 69.32 213.144 69.32C212.238 69.32 211.398 69.16 210.624 68.84C209.851 68.52 209.224 68.0133 208.744 67.32C208.291 66.6 208.064 65.68 208.064 64.56V51.48H205.304V48.08H208.064V41.2H212.464V48.08H217.024V51.48H212.464V63.16C212.518 63.88 212.744 64.4133 213.144 64.76C213.571 65.1067 214.091 65.28 214.704 65.28C215.318 65.28 215.904 65.1733 216.464 64.96C217.024 64.7467 217.438 64.5733 217.704 64.44L218.624 67.92ZM220.792 69V48.08H225.192V69H220.792ZM220.792 44.64V39.8H225.192V44.64H220.792ZM248.359 69H243.959V57.28C243.959 55.3333 243.639 53.9067 242.999 53C242.386 52.0933 241.466 51.64 240.239 51.64C239.386 51.64 238.533 51.8533 237.679 52.28C236.853 52.7067 236.106 53.2933 235.439 54.04C234.773 54.76 234.293 55.6 233.999 56.56V69H229.599V48.08H233.599V52.28C234.133 51.3467 234.826 50.5467 235.679 49.88C236.559 49.1867 237.546 48.6533 238.639 48.28C239.733 47.9067 240.893 47.72 242.119 47.72C243.373 47.72 244.399 47.9467 245.199 48.4C246.026 48.8533 246.666 49.48 247.119 50.28C247.599 51.0533 247.919 51.96 248.079 53C248.266 54.0133 248.359 55.0933 248.359 56.24V69ZM260.867 69.2C259.453 69.2 258.16 68.92 256.987 68.36C255.813 67.7733 254.8 66.9867 253.947 66C253.12 65.0133 252.467 63.88 251.987 62.6C251.533 61.32 251.307 59.9733 251.307 58.56C251.307 57.0667 251.547 55.6667 252.027 54.36C252.507 53.0533 253.173 51.9067 254.027 50.92C254.907 49.9067 255.933 49.12 257.107 48.56C258.28 48 259.587 47.72 261.027 47.72C262.707 47.72 264.173 48.12 265.427 48.92C266.707 49.72 267.76 50.76 268.587 52.04V48.08H272.467V68.4C272.467 70.4267 271.973 72.1467 270.987 73.56C270.027 74.9733 268.707 76.0533 267.027 76.8C265.347 77.5467 263.453 77.92 261.347 77.92C259.027 77.92 257.107 77.52 255.587 76.72C254.067 75.92 252.773 74.8267 251.707 73.44L254.187 71.12C254.987 72.24 256.013 73.0933 257.267 73.68C258.547 74.2667 259.907 74.56 261.347 74.56C262.547 74.56 263.653 74.3333 264.667 73.88C265.707 73.4533 266.533 72.7733 267.147 71.84C267.76 70.9333 268.067 69.7867 268.067 68.4V65.2C267.32 66.4533 266.293 67.44 264.987 68.16C263.68 68.8533 262.307 69.2 260.867 69.2ZM262.307 65.64C262.973 65.64 263.613 65.5333 264.227 65.32C264.84 65.08 265.4 64.7733 265.907 64.4C266.44 64 266.893 63.56 267.267 63.08C267.64 62.5733 267.907 62.04 268.067 61.48V56C267.72 55.0933 267.227 54.3067 266.587 53.64C265.947 52.9467 265.227 52.4133 264.427 52.04C263.627 51.6667 262.813 51.48 261.987 51.48C261.027 51.48 260.16 51.6933 259.387 52.12C258.64 52.52 258 53.0667 257.467 53.76C256.933 54.4267 256.52 55.1867 256.227 56.04C255.933 56.8933 255.787 57.7733 255.787 58.68C255.787 59.64 255.947 60.5333 256.267 61.36C256.613 62.1867 257.08 62.9333 257.667 63.6C258.253 64.24 258.947 64.7467 259.747 65.12C260.547 65.4667 261.4 65.64 262.307 65.64Z" fill="#1E1E1E"/>
<rect x="19" y="103.636" width="128" height="47.9999" rx="19.2" fill="#EEB544" stroke="#BE9136" stroke-width="4" stroke-miterlimit="0" stroke-linecap="round"/>
<path d="M173.08 142.4C171.32 142.4 169.653 142.12 168.08 141.56C166.507 140.973 165.16 140.107 164.04 138.96L165.68 136C166.88 137.067 168.08 137.84 169.28 138.32C170.507 138.8 171.72 139.04 172.92 139.04C174.147 139.04 175.147 138.813 175.92 138.36C176.693 137.88 177.08 137.187 177.08 136.28C177.08 135.613 176.88 135.12 176.48 134.8C176.08 134.48 175.493 134.2 174.72 133.96C173.973 133.72 173.067 133.453 172 133.16C170.507 132.707 169.253 132.24 168.24 131.76C167.227 131.253 166.467 130.64 165.96 129.92C165.453 129.2 165.2 128.28 165.2 127.16C165.2 125.8 165.547 124.64 166.24 123.68C166.933 122.72 167.893 121.987 169.12 121.48C170.373 120.973 171.813 120.72 173.44 120.72C174.96 120.72 176.36 120.96 177.64 121.44C178.947 121.893 180.093 122.613 181.08 123.6L179.2 126.52C178.267 125.667 177.307 125.04 176.32 124.64C175.36 124.24 174.32 124.04 173.2 124.04C172.56 124.04 171.947 124.12 171.36 124.28C170.773 124.413 170.28 124.68 169.88 125.08C169.507 125.453 169.32 125.987 169.32 126.68C169.32 127.24 169.48 127.693 169.8 128.04C170.12 128.387 170.6 128.68 171.24 128.92C171.88 129.16 172.667 129.427 173.6 129.72C175.227 130.2 176.613 130.68 177.76 131.16C178.907 131.613 179.787 132.213 180.4 132.96C181.04 133.68 181.36 134.68 181.36 135.96C181.36 137.987 180.6 139.573 179.08 140.72C177.587 141.84 175.587 142.4 173.08 142.4ZM196.009 140.92C195.636 141.107 195.169 141.307 194.609 141.52C194.049 141.733 193.409 141.92 192.689 142.08C191.996 142.24 191.276 142.32 190.529 142.32C189.623 142.32 188.783 142.16 188.009 141.84C187.236 141.52 186.609 141.013 186.129 140.32C185.676 139.6 185.449 138.68 185.449 137.56V124.48H182.689V121.08H185.449V114.2H189.849V121.08H194.409V124.48H189.849V136.16C189.903 136.88 190.129 137.413 190.529 137.76C190.956 138.107 191.476 138.28 192.089 138.28C192.703 138.28 193.289 138.173 193.849 137.96C194.409 137.747 194.823 137.573 195.089 137.44L196.009 140.92ZM196.657 135.88C196.657 134.547 197.03 133.387 197.777 132.4C198.55 131.387 199.604 130.613 200.937 130.08C202.27 129.52 203.817 129.24 205.577 129.24C206.51 129.24 207.457 129.307 208.417 129.44C209.404 129.573 210.27 129.787 211.017 130.08V128.76C211.017 127.293 210.577 126.147 209.697 125.32C208.817 124.493 207.55 124.08 205.897 124.08C204.724 124.08 203.617 124.293 202.577 124.72C201.537 125.12 200.43 125.693 199.257 126.44L197.777 123.48C199.164 122.547 200.55 121.853 201.937 121.4C203.35 120.947 204.83 120.72 206.377 120.72C209.177 120.72 211.377 121.467 212.977 122.96C214.604 124.427 215.417 126.52 215.417 129.24V137.04C215.417 137.547 215.497 137.907 215.657 138.12C215.844 138.333 216.15 138.453 216.577 138.48V142C216.177 142.08 215.817 142.133 215.497 142.16C215.177 142.187 214.91 142.2 214.697 142.2C213.764 142.2 213.057 141.973 212.577 141.52C212.097 141.067 211.817 140.533 211.737 139.92L211.617 138.72C210.71 139.893 209.55 140.8 208.137 141.44C206.724 142.08 205.297 142.4 203.857 142.4C202.47 142.4 201.23 142.12 200.137 141.56C199.044 140.973 198.19 140.187 197.577 139.2C196.964 138.213 196.657 137.107 196.657 135.88ZM209.977 137.16C210.297 136.813 210.55 136.467 210.737 136.12C210.924 135.773 211.017 135.467 211.017 135.2V132.8C210.27 132.507 209.484 132.293 208.657 132.16C207.83 132 207.017 131.92 206.217 131.92C204.617 131.92 203.31 132.24 202.297 132.88C201.31 133.52 200.817 134.4 200.817 135.52C200.817 136.133 200.977 136.72 201.297 137.28C201.644 137.84 202.124 138.293 202.737 138.64C203.377 138.987 204.164 139.16 205.097 139.16C206.057 139.16 206.977 138.973 207.857 138.6C208.737 138.227 209.444 137.747 209.977 137.16ZM238.635 142H234.235V130.28C234.235 128.333 233.915 126.907 233.275 126C232.662 125.093 231.742 124.64 230.515 124.64C229.662 124.64 228.808 124.853 227.955 125.28C227.128 125.707 226.382 126.293 225.715 127.04C225.048 127.76 224.568 128.6 224.275 129.56V142H219.875V121.08H223.875V125.28C224.408 124.347 225.102 123.547 225.955 122.88C226.835 122.187 227.822 121.653 228.915 121.28C230.008 120.907 231.168 120.72 232.395 120.72C233.648 120.72 234.675 120.947 235.475 121.4C236.302 121.853 236.942 122.48 237.395 123.28C237.875 124.053 238.195 124.96 238.355 126C238.542 127.013 238.635 128.093 238.635 129.24V142ZM241.542 131.56C241.542 129.56 241.942 127.747 242.742 126.12C243.569 124.467 244.689 123.16 246.102 122.2C247.516 121.213 249.142 120.72 250.982 120.72C252.582 120.72 254.022 121.133 255.302 121.96C256.609 122.787 257.622 123.813 258.342 125.04V112.8H262.742V137.04C262.742 137.547 262.836 137.907 263.022 138.12C263.209 138.333 263.516 138.453 263.942 138.48V142C263.116 142.133 262.476 142.2 262.022 142.2C261.196 142.2 260.489 141.96 259.902 141.48C259.342 141 259.049 140.427 259.022 139.76L258.982 138.2C258.182 139.533 257.102 140.573 255.742 141.32C254.382 142.04 252.969 142.4 251.502 142.4C250.062 142.4 248.729 142.12 247.502 141.56C246.302 141 245.249 140.213 244.342 139.2C243.462 138.187 242.769 137.027 242.262 135.72C241.782 134.413 241.542 133.027 241.542 131.56ZM258.342 134.48V129C258.049 128.147 257.569 127.387 256.902 126.72C256.262 126.027 255.529 125.48 254.702 125.08C253.902 124.68 253.102 124.48 252.302 124.48C251.369 124.48 250.516 124.68 249.742 125.08C248.996 125.48 248.342 126.013 247.782 126.68C247.249 127.347 246.836 128.107 246.542 128.96C246.249 129.813 246.102 130.707 246.102 131.64C246.102 132.6 246.262 133.507 246.582 134.36C246.902 135.187 247.356 135.933 247.942 136.6C248.556 137.24 249.249 137.747 250.022 138.12C250.822 138.467 251.689 138.64 252.622 138.64C253.209 138.64 253.796 138.533 254.382 138.32C254.996 138.107 255.569 137.813 256.102 137.44C256.662 137.067 257.129 136.627 257.502 136.12C257.902 135.613 258.182 135.067 258.342 134.48ZM267.451 142V121.08H271.851V142H267.451ZM267.451 117.64V112.8H271.851V117.64H267.451ZM295.018 142H290.618V130.28C290.618 128.333 290.298 126.907 289.658 126C289.045 125.093 288.125 124.64 286.898 124.64C286.045 124.64 285.192 124.853 284.338 125.28C283.512 125.707 282.765 126.293 282.098 127.04C281.432 127.76 280.952 128.6 280.658 129.56V142H276.258V121.08H280.258V125.28C280.792 124.347 281.485 123.547 282.338 122.88C283.218 122.187 284.205 121.653 285.298 121.28C286.392 120.907 287.552 120.72 288.778 120.72C290.032 120.72 291.058 120.947 291.858 121.4C292.685 121.853 293.325 122.48 293.778 123.28C294.258 124.053 294.578 124.96 294.738 126C294.925 127.013 295.018 128.093 295.018 129.24V142ZM307.526 142.2C306.112 142.2 304.819 141.92 303.646 141.36C302.472 140.773 301.459 139.987 300.606 139C299.779 138.013 299.126 136.88 298.646 135.6C298.192 134.32 297.966 132.973 297.966 131.56C297.966 130.067 298.206 128.667 298.686 127.36C299.166 126.053 299.832 124.907 300.686 123.92C301.566 122.907 302.592 122.12 303.766 121.56C304.939 121 306.246 120.72 307.686 120.72C309.366 120.72 310.832 121.12 312.086 121.92C313.366 122.72 314.419 123.76 315.246 125.04V121.08H319.126V141.4C319.126 143.427 318.632 145.147 317.646 146.56C316.686 147.973 315.366 149.053 313.686 149.8C312.006 150.547 310.112 150.92 308.006 150.92C305.686 150.92 303.766 150.52 302.246 149.72C300.726 148.92 299.432 147.827 298.366 146.44L300.846 144.12C301.646 145.24 302.672 146.093 303.926 146.68C305.206 147.267 306.566 147.56 308.006 147.56C309.206 147.56 310.312 147.333 311.326 146.88C312.366 146.453 313.192 145.773 313.806 144.84C314.419 143.933 314.726 142.787 314.726 141.4V138.2C313.979 139.453 312.952 140.44 311.646 141.16C310.339 141.853 308.966 142.2 307.526 142.2ZM308.966 138.64C309.632 138.64 310.272 138.533 310.886 138.32C311.499 138.08 312.059 137.773 312.566 137.4C313.099 137 313.552 136.56 313.926 136.08C314.299 135.573 314.566 135.04 314.726 134.48V129C314.379 128.093 313.886 127.307 313.246 126.64C312.606 125.947 311.886 125.413 311.086 125.04C310.286 124.667 309.472 124.48 308.646 124.48C307.686 124.48 306.819 124.693 306.046 125.12C305.299 125.52 304.659 126.067 304.126 126.76C303.592 127.427 303.179 128.187 302.886 129.04C302.592 129.893 302.446 130.773 302.446 131.68C302.446 132.64 302.606 133.533 302.926 134.36C303.272 135.187 303.739 135.933 304.326 136.6C304.912 137.24 305.606 137.747 306.406 138.12C307.206 138.467 308.059 138.64 308.966 138.64Z" fill="#1E1E1E"/>
<rect x="19" y="177.545" width="128" height="47.9999" rx="19.2" fill="#98BB54" stroke="#7A9643" stroke-width="4" stroke-miterlimit="0" stroke-linecap="round"/>
<path d="M175.04 216.4C173.387 216.4 171.907 216.12 170.6 215.56C169.293 214.973 168.16 214.173 167.2 213.16C166.267 212.147 165.547 211 165.04 209.72C164.533 208.413 164.28 207.027 164.28 205.56C164.28 204.093 164.533 202.707 165.04 201.4C165.547 200.093 166.267 198.947 167.2 197.96C168.16 196.947 169.293 196.16 170.6 195.6C171.933 195.013 173.413 194.72 175.04 194.72C176.667 194.72 178.133 195.013 179.44 195.6C180.773 196.16 181.907 196.947 182.84 197.96C183.8 198.947 184.533 200.093 185.04 201.4C185.547 202.707 185.8 204.093 185.8 205.56C185.8 207.027 185.547 208.413 185.04 209.72C184.533 211 183.8 212.147 182.84 213.16C181.907 214.173 180.773 214.973 179.44 215.56C178.133 216.12 176.667 216.4 175.04 216.4ZM168.8 205.6C168.8 206.933 169.08 208.133 169.64 209.2C170.2 210.267 170.947 211.107 171.88 211.72C172.813 212.333 173.867 212.64 175.04 212.64C176.187 212.64 177.227 212.333 178.16 211.72C179.12 211.08 179.88 210.227 180.44 209.16C181 208.067 181.28 206.867 181.28 205.56C181.28 204.227 181 203.027 180.44 201.96C179.88 200.893 179.12 200.053 178.16 199.44C177.227 198.8 176.187 198.48 175.04 198.48C173.867 198.48 172.813 198.8 171.88 199.44C170.947 200.08 170.2 200.933 169.64 202C169.08 203.04 168.8 204.24 168.8 205.6ZM200.15 214.92C199.777 215.107 199.31 215.307 198.75 215.52C198.19 215.733 197.55 215.92 196.83 216.08C196.137 216.24 195.417 216.32 194.67 216.32C193.763 216.32 192.923 216.16 192.15 215.84C191.377 215.52 190.75 215.013 190.27 214.32C189.817 213.6 189.59 212.68 189.59 211.56V198.48H186.83V195.08H189.59V188.2H193.99V195.08H198.55V198.48H193.99V210.16C194.043 210.88 194.27 211.413 194.67 211.76C195.097 212.107 195.617 212.28 196.23 212.28C196.843 212.28 197.43 212.173 197.99 211.96C198.55 211.747 198.963 211.573 199.23 211.44L200.15 214.92ZM221.078 216H216.678V204.28C216.678 202.387 216.331 200.973 215.638 200.04C214.944 199.107 213.971 198.64 212.718 198.64C211.944 198.64 211.144 198.853 210.318 199.28C209.491 199.707 208.758 200.293 208.118 201.04C207.478 201.76 207.011 202.6 206.718 203.56V216H202.318V186.8H206.718V199.28C207.518 197.867 208.611 196.76 209.998 195.96C211.384 195.133 212.878 194.72 214.478 194.72C215.784 194.72 216.864 194.947 217.718 195.4C218.571 195.853 219.238 196.48 219.718 197.28C220.224 198.053 220.571 198.96 220.758 200C220.971 201.013 221.078 202.093 221.078 203.24V216ZM234.785 216.4C233.158 216.4 231.678 216.12 230.345 215.56C229.038 214.973 227.905 214.187 226.945 213.2C225.985 212.187 225.238 211.04 224.705 209.76C224.198 208.453 223.945 207.067 223.945 205.6C223.945 203.627 224.398 201.827 225.305 200.2C226.211 198.547 227.478 197.227 229.105 196.24C230.731 195.227 232.638 194.72 234.825 194.72C237.011 194.72 238.891 195.227 240.465 196.24C242.065 197.227 243.305 198.533 244.185 200.16C245.065 201.787 245.505 203.533 245.505 205.4C245.505 205.72 245.491 206.027 245.465 206.32C245.438 206.587 245.411 206.813 245.385 207H228.625C228.705 208.227 229.038 209.307 229.625 210.24C230.238 211.147 231.011 211.867 231.945 212.4C232.878 212.907 233.878 213.16 234.945 213.16C236.118 213.16 237.225 212.867 238.265 212.28C239.331 211.693 240.051 210.92 240.425 209.96L244.185 211.04C243.731 212.053 243.038 212.973 242.105 213.8C241.198 214.6 240.118 215.24 238.865 215.72C237.611 216.173 236.251 216.4 234.785 216.4ZM228.505 204.08H241.145C241.065 202.88 240.718 201.827 240.105 200.92C239.518 199.987 238.758 199.267 237.825 198.76C236.918 198.227 235.905 197.96 234.785 197.96C233.691 197.96 232.678 198.227 231.745 198.76C230.838 199.267 230.091 199.987 229.505 200.92C228.918 201.827 228.585 202.88 228.505 204.08ZM259.974 198.88C258.267 198.907 256.747 199.293 255.414 200.04C254.107 200.787 253.174 201.84 252.614 203.2V216H248.214V195.08H252.294V199.76C253.014 198.32 253.96 197.173 255.134 196.32C256.307 195.44 257.547 194.96 258.854 194.88C259.12 194.88 259.334 194.88 259.494 194.88C259.68 194.88 259.84 194.893 259.974 194.92V198.88Z" fill="#1E1E1E"/>
</svg>
