<svg viewBox="0 0 964 143" fill="none" xmlns="http://www.w3.org/2000/svg">
<rect x="2" y="2" width="960" height="139" rx="20" fill="white" stroke="#CCCCCC" stroke-width="4" stroke-miterlimit="0" stroke-linecap="round"/>
<rect x="34" y="48" width="128" height="47.9999" rx="19.2" fill="#CC4B45" stroke="#A33C37" stroke-width="4" stroke-miterlimit="0" stroke-linecap="round"/>
<path d="M188.08 86.8546C186.32 86.8546 184.653 86.5746 183.08 86.0146C181.507 85.4279 180.16 84.5613 179.04 83.4146L180.68 80.4546C181.88 81.5213 183.08 82.2946 184.28 82.7746C185.507 83.2546 186.72 83.4946 187.92 83.4946C189.147 83.4946 190.147 83.2679 190.92 82.8146C191.693 82.3346 192.08 81.6413 192.08 80.7346C192.08 80.0679 191.88 79.5746 191.48 79.2546C191.08 78.9346 190.493 78.6546 189.72 78.4146C188.973 78.1746 188.067 77.9079 187 77.6146C185.507 77.1613 184.253 76.6946 183.24 76.2146C182.227 75.7079 181.467 75.0946 180.96 74.3746C180.453 73.6546 180.2 72.7346 180.2 71.6146C180.2 70.2546 180.547 69.0946 181.24 68.1346C181.933 67.1746 182.893 66.4413 184.12 65.9346C185.373 65.4279 186.813 65.1746 188.44 65.1746C189.96 65.1746 191.36 65.4146 192.64 65.8946C193.947 66.3479 195.093 67.0679 196.08 68.0546L194.2 70.9746C193.267 70.1213 192.307 69.4946 191.32 69.0946C190.36 68.6946 189.32 68.4946 188.2 68.4946C187.56 68.4946 186.947 68.5746 186.36 68.7346C185.773 68.8679 185.28 69.1346 184.88 69.5346C184.507 69.9079 184.32 70.4413 184.32 71.1346C184.32 71.6946 184.48 72.1479 184.8 72.4946C185.12 72.8413 185.6 73.1346 186.24 73.3746C186.88 73.6146 187.667 73.8813 188.6 74.1746C190.227 74.6546 191.613 75.1346 192.76 75.6146C193.907 76.0679 194.787 76.6679 195.4 77.4146C196.04 78.1346 196.36 79.1346 196.36 80.4146C196.36 82.4413 195.6 84.0279 194.08 85.1746C192.587 86.2946 190.587 86.8546 188.08 86.8546ZM199.408 86.4546V65.5346H203.808V86.4546H199.408ZM199.408 62.0946V57.2546H203.808V62.0946H199.408ZM219.856 85.3746C219.483 85.5613 219.016 85.7613 218.456 85.9746C217.896 86.1879 217.256 86.3746 216.536 86.5346C215.843 86.6946 215.123 86.7746 214.376 86.7746C213.469 86.7746 212.629 86.6146 211.856 86.2946C211.083 85.9746 210.456 85.4679 209.976 84.7746C209.523 84.0546 209.296 83.1346 209.296 82.0146V68.9346H206.536V65.5346H209.296V58.6546H213.696V65.5346H218.256V68.9346H213.696V80.6146C213.749 81.3346 213.976 81.8679 214.376 82.2146C214.803 82.5613 215.323 82.7346 215.936 82.7346C216.549 82.7346 217.136 82.6279 217.696 82.4146C218.256 82.2013 218.669 82.0279 218.936 81.8946L219.856 85.3746ZM233.624 85.3746C233.251 85.5613 232.784 85.7613 232.224 85.9746C231.664 86.1879 231.024 86.3746 230.304 86.5346C229.611 86.6946 228.891 86.7746 228.144 86.7746C227.238 86.7746 226.398 86.6146 225.624 86.2946C224.851 85.9746 224.224 85.4679 223.744 84.7746C223.291 84.0546 223.064 83.1346 223.064 82.0146V68.9346H220.304V65.5346H223.064V58.6546H227.464V65.5346H232.024V68.9346H227.464V80.6146C227.518 81.3346 227.744 81.8679 228.144 82.2146C228.571 82.5613 229.091 82.7346 229.704 82.7346C230.318 82.7346 230.904 82.6279 231.464 82.4146C232.024 82.2013 232.438 82.0279 232.704 81.8946L233.624 85.3746ZM235.792 86.4546V65.5346H240.192V86.4546H235.792ZM235.792 62.0946V57.2546H240.192V62.0946H235.792ZM263.359 86.4546H258.959V74.7346C258.959 72.7879 258.639 71.3613 257.999 70.4546C257.386 69.5479 256.466 69.0946 255.239 69.0946C254.386 69.0946 253.533 69.3079 252.679 69.7346C251.853 70.1613 251.106 70.7479 250.439 71.4946C249.773 72.2146 249.293 73.0546 248.999 74.0146V86.4546H244.599V65.5346H248.599V69.7346C249.133 68.8013 249.826 68.0013 250.679 67.3346C251.559 66.6413 252.546 66.1079 253.639 65.7346C254.733 65.3613 255.893 65.1746 257.119 65.1746C258.373 65.1746 259.399 65.4013 260.199 65.8546C261.026 66.3079 261.666 66.9346 262.119 67.7346C262.599 68.5079 262.919 69.4146 263.079 70.4546C263.266 71.4679 263.359 72.5479 263.359 73.6946V86.4546ZM275.867 86.6546C274.453 86.6546 273.16 86.3746 271.987 85.8146C270.813 85.2279 269.8 84.4413 268.947 83.4546C268.12 82.4679 267.467 81.3346 266.987 80.0546C266.533 78.7746 266.307 77.4279 266.307 76.0146C266.307 74.5213 266.547 73.1213 267.027 71.8146C267.507 70.5079 268.173 69.3613 269.027 68.3746C269.907 67.3613 270.933 66.5746 272.107 66.0146C273.28 65.4546 274.587 65.1746 276.027 65.1746C277.707 65.1746 279.173 65.5746 280.427 66.3746C281.707 67.1746 282.76 68.2146 283.587 69.4946V65.5346H287.467V85.8546C287.467 87.8813 286.973 89.6013 285.987 91.0146C285.027 92.4279 283.707 93.5079 282.027 94.2546C280.347 95.0013 278.453 95.3746 276.347 95.3746C274.027 95.3746 272.107 94.9746 270.587 94.1746C269.067 93.3746 267.773 92.2813 266.707 90.8946L269.187 88.5746C269.987 89.6946 271.013 90.5479 272.267 91.1346C273.547 91.7213 274.907 92.0146 276.347 92.0146C277.547 92.0146 278.653 91.7879 279.667 91.3346C280.707 90.9079 281.533 90.2279 282.147 89.2946C282.76 88.3879 283.067 87.2413 283.067 85.8546V82.6546C282.32 83.9079 281.293 84.8946 279.987 85.6146C278.68 86.3079 277.307 86.6546 275.867 86.6546ZM277.307 83.0946C277.973 83.0946 278.613 82.9879 279.227 82.7746C279.84 82.5346 280.4 82.2279 280.907 81.8546C281.44 81.4546 281.893 81.0146 282.267 80.5346C282.64 80.0279 282.907 79.4946 283.067 78.9346V73.4546C282.72 72.5479 282.227 71.7613 281.587 71.0946C280.947 70.4013 280.227 69.8679 279.427 69.4946C278.627 69.1213 277.813 68.9346 276.987 68.9346C276.027 68.9346 275.16 69.1479 274.387 69.5746C273.64 69.9746 273 70.5213 272.467 71.2146C271.933 71.8813 271.52 72.6413 271.227 73.4946C270.933 74.3479 270.787 75.2279 270.787 76.1346C270.787 77.0946 270.947 77.9879 271.267 78.8146C271.613 79.6413 272.08 80.3879 272.667 81.0546C273.253 81.6946 273.947 82.2013 274.747 82.5746C275.547 82.9213 276.4 83.0946 277.307 83.0946Z" fill="#1E1E1E"/>
<rect x="338" y="52.0908" width="128" height="47.9999" rx="19.2" fill="#EEB544" stroke="#BE9136" stroke-width="4" stroke-miterlimit="0" stroke-linecap="round"/>
<path d="M492.08 90.8546C490.32 90.8546 488.653 90.5746 487.08 90.0146C485.507 89.4279 484.16 88.5613 483.04 87.4146L484.68 84.4546C485.88 85.5213 487.08 86.2946 488.28 86.7746C489.507 87.2546 490.72 87.4946 491.92 87.4946C493.147 87.4946 494.147 87.2679 494.92 86.8146C495.693 86.3346 496.08 85.6413 496.08 84.7346C496.08 84.0679 495.88 83.5746 495.48 83.2546C495.08 82.9346 494.493 82.6546 493.72 82.4146C492.973 82.1746 492.067 81.9079 491 81.6146C489.507 81.1613 488.253 80.6946 487.24 80.2146C486.227 79.7079 485.467 79.0946 484.96 78.3746C484.453 77.6546 484.2 76.7346 484.2 75.6146C484.2 74.2546 484.547 73.0946 485.24 72.1346C485.933 71.1746 486.893 70.4413 488.12 69.9346C489.373 69.4279 490.813 69.1746 492.44 69.1746C493.96 69.1746 495.36 69.4146 496.64 69.8946C497.947 70.3479 499.093 71.0679 500.08 72.0546L498.2 74.9746C497.267 74.1213 496.307 73.4946 495.32 73.0946C494.36 72.6946 493.32 72.4946 492.2 72.4946C491.56 72.4946 490.947 72.5746 490.36 72.7346C489.773 72.8679 489.28 73.1346 488.88 73.5346C488.507 73.9079 488.32 74.4413 488.32 75.1346C488.32 75.6946 488.48 76.1479 488.8 76.4946C489.12 76.8413 489.6 77.1346 490.24 77.3746C490.88 77.6146 491.667 77.8813 492.6 78.1746C494.227 78.6546 495.613 79.1346 496.76 79.6146C497.907 80.0679 498.787 80.6679 499.4 81.4146C500.04 82.1346 500.36 83.1346 500.36 84.4146C500.36 86.4413 499.6 88.0279 498.08 89.1746C496.587 90.2946 494.587 90.8546 492.08 90.8546ZM515.009 89.3746C514.636 89.5613 514.169 89.7613 513.609 89.9746C513.049 90.1879 512.409 90.3746 511.689 90.5346C510.996 90.6946 510.276 90.7746 509.529 90.7746C508.623 90.7746 507.783 90.6146 507.009 90.2946C506.236 89.9746 505.609 89.4679 505.129 88.7746C504.676 88.0546 504.449 87.1346 504.449 86.0146V72.9346H501.689V69.5346H504.449V62.6546H508.849V69.5346H513.409V72.9346H508.849V84.6146C508.903 85.3346 509.129 85.8679 509.529 86.2146C509.956 86.5613 510.476 86.7346 511.089 86.7346C511.703 86.7346 512.289 86.6279 512.849 86.4146C513.409 86.2013 513.823 86.0279 514.089 85.8946L515.009 89.3746ZM515.657 84.3346C515.657 83.0013 516.03 81.8413 516.777 80.8546C517.55 79.8413 518.604 79.0679 519.937 78.5346C521.27 77.9746 522.817 77.6946 524.577 77.6946C525.51 77.6946 526.457 77.7613 527.417 77.8946C528.404 78.0279 529.27 78.2413 530.017 78.5346V77.2146C530.017 75.7479 529.577 74.6013 528.697 73.7746C527.817 72.9479 526.55 72.5346 524.897 72.5346C523.724 72.5346 522.617 72.7479 521.577 73.1746C520.537 73.5746 519.43 74.1479 518.257 74.8946L516.777 71.9346C518.164 71.0013 519.55 70.3079 520.937 69.8546C522.35 69.4013 523.83 69.1746 525.377 69.1746C528.177 69.1746 530.377 69.9213 531.977 71.4146C533.604 72.8813 534.417 74.9746 534.417 77.6946V85.4946C534.417 86.0013 534.497 86.3613 534.657 86.5746C534.844 86.7879 535.15 86.9079 535.577 86.9346V90.4546C535.177 90.5346 534.817 90.5879 534.497 90.6146C534.177 90.6413 533.91 90.6546 533.697 90.6546C532.764 90.6546 532.057 90.4279 531.577 89.9746C531.097 89.5213 530.817 88.9879 530.737 88.3746L530.617 87.1746C529.71 88.3479 528.55 89.2546 527.137 89.8946C525.724 90.5346 524.297 90.8546 522.857 90.8546C521.47 90.8546 520.23 90.5746 519.137 90.0146C518.044 89.4279 517.19 88.6413 516.577 87.6546C515.964 86.6679 515.657 85.5613 515.657 84.3346ZM528.977 85.6146C529.297 85.2679 529.55 84.9213 529.737 84.5746C529.924 84.2279 530.017 83.9213 530.017 83.6546V81.2546C529.27 80.9613 528.484 80.7479 527.657 80.6146C526.83 80.4546 526.017 80.3746 525.217 80.3746C523.617 80.3746 522.31 80.6946 521.297 81.3346C520.31 81.9746 519.817 82.8546 519.817 83.9746C519.817 84.5879 519.977 85.1746 520.297 85.7346C520.644 86.2946 521.124 86.7479 521.737 87.0946C522.377 87.4413 523.164 87.6146 524.097 87.6146C525.057 87.6146 525.977 87.4279 526.857 87.0546C527.737 86.6813 528.444 86.2013 528.977 85.6146ZM557.635 90.4546H553.235V78.7346C553.235 76.7879 552.915 75.3613 552.275 74.4546C551.662 73.5479 550.742 73.0946 549.515 73.0946C548.662 73.0946 547.808 73.3079 546.955 73.7346C546.128 74.1613 545.382 74.7479 544.715 75.4946C544.048 76.2146 543.568 77.0546 543.275 78.0146V90.4546H538.875V69.5346H542.875V73.7346C543.408 72.8013 544.102 72.0013 544.955 71.3346C545.835 70.6413 546.822 70.1079 547.915 69.7346C549.008 69.3613 550.168 69.1746 551.395 69.1746C552.648 69.1746 553.675 69.4013 554.475 69.8546C555.302 70.3079 555.942 70.9346 556.395 71.7346C556.875 72.5079 557.195 73.4146 557.355 74.4546C557.542 75.4679 557.635 76.5479 557.635 77.6946V90.4546ZM560.542 80.0146C560.542 78.0146 560.942 76.2013 561.742 74.5746C562.569 72.9213 563.689 71.6146 565.102 70.6546C566.516 69.6679 568.142 69.1746 569.982 69.1746C571.582 69.1746 573.022 69.5879 574.302 70.4146C575.609 71.2413 576.622 72.2679 577.342 73.4946V61.2546H581.742V85.4946C581.742 86.0013 581.836 86.3613 582.022 86.5746C582.209 86.7879 582.516 86.9079 582.942 86.9346V90.4546C582.116 90.5879 581.476 90.6546 581.022 90.6546C580.196 90.6546 579.489 90.4146 578.902 89.9346C578.342 89.4546 578.049 88.8813 578.022 88.2146L577.982 86.6546C577.182 87.9879 576.102 89.0279 574.742 89.7746C573.382 90.4946 571.969 90.8546 570.502 90.8546C569.062 90.8546 567.729 90.5746 566.502 90.0146C565.302 89.4546 564.249 88.6679 563.342 87.6546C562.462 86.6413 561.769 85.4813 561.262 84.1746C560.782 82.8679 560.542 81.4813 560.542 80.0146ZM577.342 82.9346V77.4546C577.049 76.6013 576.569 75.8413 575.902 75.1746C575.262 74.4813 574.529 73.9346 573.702 73.5346C572.902 73.1346 572.102 72.9346 571.302 72.9346C570.369 72.9346 569.516 73.1346 568.742 73.5346C567.996 73.9346 567.342 74.4679 566.782 75.1346C566.249 75.8013 565.836 76.5613 565.542 77.4146C565.249 78.2679 565.102 79.1613 565.102 80.0946C565.102 81.0546 565.262 81.9613 565.582 82.8146C565.902 83.6413 566.356 84.3879 566.942 85.0546C567.556 85.6946 568.249 86.2013 569.022 86.5746C569.822 86.9213 570.689 87.0946 571.622 87.0946C572.209 87.0946 572.796 86.9879 573.382 86.7746C573.996 86.5613 574.569 86.2679 575.102 85.8946C575.662 85.5213 576.129 85.0813 576.502 84.5746C576.902 84.0679 577.182 83.5213 577.342 82.9346ZM586.451 90.4546V69.5346H590.851V90.4546H586.451ZM586.451 66.0946V61.2546H590.851V66.0946H586.451ZM614.018 90.4546H609.618V78.7346C609.618 76.7879 609.298 75.3613 608.658 74.4546C608.045 73.5479 607.125 73.0946 605.898 73.0946C605.045 73.0946 604.192 73.3079 603.338 73.7346C602.512 74.1613 601.765 74.7479 601.098 75.4946C600.432 76.2146 599.952 77.0546 599.658 78.0146V90.4546H595.258V69.5346H599.258V73.7346C599.792 72.8013 600.485 72.0013 601.338 71.3346C602.218 70.6413 603.205 70.1079 604.298 69.7346C605.392 69.3613 606.552 69.1746 607.778 69.1746C609.032 69.1746 610.058 69.4013 610.858 69.8546C611.685 70.3079 612.325 70.9346 612.778 71.7346C613.258 72.5079 613.578 73.4146 613.738 74.4546C613.925 75.4679 614.018 76.5479 614.018 77.6946V90.4546ZM626.526 90.6546C625.112 90.6546 623.819 90.3746 622.646 89.8146C621.472 89.2279 620.459 88.4413 619.606 87.4546C618.779 86.4679 618.126 85.3346 617.646 84.0546C617.192 82.7746 616.966 81.4279 616.966 80.0146C616.966 78.5213 617.206 77.1213 617.686 75.8146C618.166 74.5079 618.832 73.3613 619.686 72.3746C620.566 71.3613 621.592 70.5746 622.766 70.0146C623.939 69.4546 625.246 69.1746 626.686 69.1746C628.366 69.1746 629.832 69.5746 631.086 70.3746C632.366 71.1746 633.419 72.2146 634.246 73.4946V69.5346H638.126V89.8546C638.126 91.8813 637.632 93.6013 636.646 95.0146C635.686 96.4279 634.366 97.5079 632.686 98.2546C631.006 99.0013 629.112 99.3746 627.006 99.3746C624.686 99.3746 622.766 98.9746 621.246 98.1746C619.726 97.3746 618.432 96.2813 617.366 94.8946L619.846 92.5746C620.646 93.6946 621.672 94.5479 622.926 95.1346C624.206 95.7213 625.566 96.0146 627.006 96.0146C628.206 96.0146 629.312 95.7879 630.326 95.3346C631.366 94.9079 632.192 94.2279 632.806 93.2946C633.419 92.3879 633.726 91.2413 633.726 89.8546V86.6546C632.979 87.9079 631.952 88.8946 630.646 89.6146C629.339 90.3079 627.966 90.6546 626.526 90.6546ZM627.966 87.0946C628.632 87.0946 629.272 86.9879 629.886 86.7746C630.499 86.5346 631.059 86.2279 631.566 85.8546C632.099 85.4546 632.552 85.0146 632.926 84.5346C633.299 84.0279 633.566 83.4946 633.726 82.9346V77.4546C633.379 76.5479 632.886 75.7613 632.246 75.0946C631.606 74.4013 630.886 73.8679 630.086 73.4946C629.286 73.1213 628.472 72.9346 627.646 72.9346C626.686 72.9346 625.819 73.1479 625.046 73.5746C624.299 73.9746 623.659 74.5213 623.126 75.2146C622.592 75.8813 622.179 76.6413 621.886 77.4946C621.592 78.3479 621.446 79.2279 621.446 80.1346C621.446 81.0946 621.606 81.9879 621.926 82.8146C622.272 83.6413 622.739 84.3879 623.326 85.0546C623.912 85.6946 624.606 86.2013 625.406 86.5746C626.206 86.9213 627.059 87.0946 627.966 87.0946Z" fill="#1E1E1E"/>
<rect x="688" y="52.5454" width="128" height="47.9999" rx="19.2" fill="#98BB54" stroke="#7A9643" stroke-width="4" stroke-miterlimit="0" stroke-linecap="round"/>
<path d="M844.04 90.4C842.387 90.4 840.907 90.12 839.6 89.56C838.293 88.9733 837.16 88.1733 836.2 87.16C835.267 86.1467 834.547 85 834.04 83.72C833.533 82.4133 833.28 81.0267 833.28 79.56C833.28 78.0933 833.533 76.7067 834.04 75.4C834.547 74.0933 835.267 72.9467 836.2 71.96C837.16 70.9467 838.293 70.16 839.6 69.6C840.933 69.0133 842.413 68.72 844.04 68.72C845.667 68.72 847.133 69.0133 848.44 69.6C849.773 70.16 850.907 70.9467 851.84 71.96C852.8 72.9467 853.533 74.0933 854.04 75.4C854.547 76.7067 854.8 78.0933 854.8 79.56C854.8 81.0267 854.547 82.4133 854.04 83.72C853.533 85 852.8 86.1467 851.84 87.16C850.907 88.1733 849.773 88.9733 848.44 89.56C847.133 90.12 845.667 90.4 844.04 90.4ZM837.8 79.6C837.8 80.9333 838.08 82.1333 838.64 83.2C839.2 84.2667 839.947 85.1067 840.88 85.72C841.813 86.3333 842.867 86.64 844.04 86.64C845.187 86.64 846.227 86.3333 847.16 85.72C848.12 85.08 848.88 84.2267 849.44 83.16C850 82.0667 850.28 80.8667 850.28 79.56C850.28 78.2267 850 77.0267 849.44 75.96C848.88 74.8933 848.12 74.0533 847.16 73.44C846.227 72.8 845.187 72.48 844.04 72.48C842.867 72.48 841.813 72.8 840.88 73.44C839.947 74.08 839.2 74.9333 838.64 76C838.08 77.04 837.8 78.24 837.8 79.6ZM869.15 88.92C868.777 89.1067 868.31 89.3067 867.75 89.52C867.19 89.7333 866.55 89.92 865.83 90.08C865.137 90.24 864.417 90.32 863.67 90.32C862.763 90.32 861.923 90.16 861.15 89.84C860.377 89.52 859.75 89.0133 859.27 88.32C858.817 87.6 858.59 86.68 858.59 85.56V72.48H855.83V69.08H858.59V62.2H862.99V69.08H867.55V72.48H862.99V84.16C863.043 84.88 863.27 85.4133 863.67 85.76C864.097 86.1067 864.617 86.28 865.23 86.28C865.843 86.28 866.43 86.1733 866.99 85.96C867.55 85.7467 867.963 85.5733 868.23 85.44L869.15 88.92ZM890.078 90H885.678V78.28C885.678 76.3867 885.331 74.9733 884.638 74.04C883.944 73.1067 882.971 72.64 881.718 72.64C880.944 72.64 880.144 72.8533 879.318 73.28C878.491 73.7067 877.758 74.2933 877.118 75.04C876.478 75.76 876.011 76.6 875.718 77.56V90H871.318V60.8H875.718V73.28C876.518 71.8667 877.611 70.76 878.998 69.96C880.384 69.1333 881.878 68.72 883.478 68.72C884.784 68.72 885.864 68.9467 886.718 69.4C887.571 69.8533 888.238 70.48 888.718 71.28C889.224 72.0533 889.571 72.96 889.758 74C889.971 75.0133 890.078 76.0933 890.078 77.24V90ZM903.785 90.4C902.158 90.4 900.678 90.12 899.345 89.56C898.038 88.9733 896.905 88.1867 895.945 87.2C894.985 86.1867 894.238 85.04 893.705 83.76C893.198 82.4533 892.945 81.0667 892.945 79.6C892.945 77.6267 893.398 75.8267 894.305 74.2C895.211 72.5467 896.478 71.2267 898.105 70.24C899.731 69.2267 901.638 68.72 903.825 68.72C906.011 68.72 907.891 69.2267 909.465 70.24C911.065 71.2267 912.305 72.5333 913.185 74.16C914.065 75.7867 914.505 77.5333 914.505 79.4C914.505 79.72 914.491 80.0267 914.465 80.32C914.438 80.5867 914.411 80.8133 914.385 81H897.625C897.705 82.2267 898.038 83.3067 898.625 84.24C899.238 85.1467 900.011 85.8667 900.945 86.4C901.878 86.9067 902.878 87.16 903.945 87.16C905.118 87.16 906.225 86.8667 907.265 86.28C908.331 85.6933 909.051 84.92 909.425 83.96L913.185 85.04C912.731 86.0533 912.038 86.9733 911.105 87.8C910.198 88.6 909.118 89.24 907.865 89.72C906.611 90.1733 905.251 90.4 903.785 90.4ZM897.505 78.08H910.145C910.065 76.88 909.718 75.8267 909.105 74.92C908.518 73.9867 907.758 73.2667 906.825 72.76C905.918 72.2267 904.905 71.96 903.785 71.96C902.691 71.96 901.678 72.2267 900.745 72.76C899.838 73.2667 899.091 73.9867 898.505 74.92C897.918 75.8267 897.585 76.88 897.505 78.08ZM928.974 72.88C927.267 72.9067 925.747 73.2933 924.414 74.04C923.107 74.7867 922.174 75.84 921.614 77.2V90H917.214V69.08H921.294V73.76C922.014 72.32 922.96 71.1733 924.134 70.32C925.307 69.44 926.547 68.96 927.854 68.88C928.12 68.88 928.334 68.88 928.494 68.88C928.68 68.88 928.84 68.8933 928.974 68.92V72.88Z" fill="#1E1E1E"/>
</svg>
